<mxfile host="65bd71144e">
    <diagram name="Page-1" id="MNouAkWN2y69VjzO6mfP">
        <mxGraphModel dx="1005" dy="578" grid="1" gridSize="10" guides="1" tooltips="1" connect="1" arrows="1" fold="1" page="1" pageScale="1" pageWidth="850" pageHeight="1100" math="0" shadow="0">
            <root>
                <mxCell id="0"/>
                <mxCell id="1" parent="0"/>
                <mxCell id="2" value="" style="group;fillColor=default;" vertex="1" connectable="0" parent="1">
                    <mxGeometry x="40" y="40" width="720" height="480" as="geometry"/>
                </mxCell>
                <mxCell id="UTCA0jkk04dVXAPqX4uc-1" value="" style="rounded=0;whiteSpace=wrap;html=1;fillColor=none;" parent="2" vertex="1">
                    <mxGeometry width="720" height="480" as="geometry"/>
                </mxCell>
                <mxCell id="UTCA0jkk04dVXAPqX4uc-2" value="&lt;font style=&quot;font-size: 60px;&quot;&gt;Gust&lt;/font&gt;" style="rounded=0;whiteSpace=wrap;html=1;fillColor=none;" parent="2" vertex="1">
                    <mxGeometry x="40" y="40" width="640" height="140" as="geometry"/>
                </mxCell>
                <mxCell id="UTCA0jkk04dVXAPqX4uc-4" value="&lt;font style=&quot;font-size: 25px;&quot;&gt;Levels&lt;/font&gt;" style="rounded=0;whiteSpace=wrap;html=1;fillColor=none;" parent="2" vertex="1">
                    <mxGeometry x="40" y="200" width="280" height="40" as="geometry"/>
                </mxCell>
                <mxCell id="UTCA0jkk04dVXAPqX4uc-7" value="" style="rounded=0;whiteSpace=wrap;html=1;fillColor=none;" parent="2" vertex="1">
                    <mxGeometry x="340" y="180" width="40" height="260" as="geometry"/>
                </mxCell>
                <mxCell id="UTCA0jkk04dVXAPqX4uc-8" value="" style="rounded=0;whiteSpace=wrap;html=1;fillColor=default;strokeColor=none;" parent="2" vertex="1">
                    <mxGeometry x="341" y="170" width="38" height="20" as="geometry"/>
                </mxCell>
                <mxCell id="UTCA0jkk04dVXAPqX4uc-9" value="&lt;div style=&quot;font-size: 25px;&quot;&gt;&lt;font style=&quot;font-size: 25px;&quot;&gt;1&lt;/font&gt;&lt;/div&gt;" style="rounded=0;whiteSpace=wrap;html=1;fillColor=none;" parent="2" vertex="1">
                    <mxGeometry x="40" y="280" width="128.33333333333331" height="40" as="geometry"/>
                </mxCell>
                <mxCell id="UTCA0jkk04dVXAPqX4uc-11" value="Coming Soon" style="rounded=0;whiteSpace=wrap;html=1;fillColor=none;fontSize=15;" parent="2" vertex="1">
                    <mxGeometry x="191.66666666666663" y="280" width="128.33333333333331" height="40" as="geometry"/>
                </mxCell>
                <mxCell id="UTCA0jkk04dVXAPqX4uc-18" value="Coming Soon" style="rounded=0;whiteSpace=wrap;html=1;fillColor=none;fontSize=15;" parent="2" vertex="1">
                    <mxGeometry x="40" y="340" width="128.33333333333331" height="40" as="geometry"/>
                </mxCell>
                <mxCell id="UTCA0jkk04dVXAPqX4uc-19" value="Coming Soon" style="rounded=0;whiteSpace=wrap;html=1;fillColor=none;fontSize=15;" parent="2" vertex="1">
                    <mxGeometry x="191.66666666666663" y="340" width="128.33333333333331" height="40" as="geometry"/>
                </mxCell>
                <mxCell id="UTCA0jkk04dVXAPqX4uc-20" value="Coming Soon" style="rounded=0;whiteSpace=wrap;html=1;fillColor=none;fontSize=15;" parent="2" vertex="1">
                    <mxGeometry x="191.66666666666663" y="400" width="128.33333333333331" height="40" as="geometry"/>
                </mxCell>
                <mxCell id="UTCA0jkk04dVXAPqX4uc-21" value="Coming Soon" style="rounded=0;whiteSpace=wrap;html=1;fillColor=none;fontSize=15;" parent="2" vertex="1">
                    <mxGeometry x="40" y="400" width="128.33333333333331" height="40" as="geometry"/>
                </mxCell>
                <mxCell id="UTCA0jkk04dVXAPqX4uc-23" value="&lt;div style=&quot;font-size: 25px;&quot;&gt;Settings&lt;/div&gt;" style="rounded=0;whiteSpace=wrap;html=1;fillColor=none;fontSize=25;" parent="2" vertex="1">
                    <mxGeometry x="400" y="200" width="280" height="40" as="geometry"/>
                </mxCell>
                <mxCell id="UTCA0jkk04dVXAPqX4uc-24" value="Update" style="rounded=0;whiteSpace=wrap;html=1;fillColor=none;fontSize=15;" parent="2" vertex="1">
                    <mxGeometry x="550" y="400" width="130" height="40" as="geometry"/>
                </mxCell>
                <mxCell id="3" value="" style="group;fillColor=default;" vertex="1" connectable="0" parent="1">
                    <mxGeometry x="40" y="560" width="720" height="480" as="geometry"/>
                </mxCell>
                <mxCell id="4" value="" style="rounded=0;whiteSpace=wrap;html=1;fillColor=none;" vertex="1" parent="3">
                    <mxGeometry width="720" height="480" as="geometry"/>
                </mxCell>
                <mxCell id="5" value="&lt;font style=&quot;font-size: 60px;&quot;&gt;Gust&lt;/font&gt;" style="rounded=0;whiteSpace=wrap;html=1;fillColor=none;" vertex="1" parent="3">
                    <mxGeometry x="40" y="40" width="640" height="140" as="geometry"/>
                </mxCell>
                <mxCell id="6" value="&lt;font style=&quot;font-size: 25px;&quot;&gt;Levels&lt;/font&gt;" style="rounded=0;whiteSpace=wrap;html=1;fillColor=none;" vertex="1" parent="3">
                    <mxGeometry x="40" y="200" width="280" height="40" as="geometry"/>
                </mxCell>
                <mxCell id="7" value="" style="rounded=0;whiteSpace=wrap;html=1;fillColor=none;" vertex="1" parent="3">
                    <mxGeometry x="340" y="180" width="40" height="260" as="geometry"/>
                </mxCell>
                <mxCell id="8" value="" style="rounded=0;whiteSpace=wrap;html=1;fillColor=default;strokeColor=none;" vertex="1" parent="3">
                    <mxGeometry x="341" y="170" width="38" height="20" as="geometry"/>
                </mxCell>
                <mxCell id="15" value="&lt;div style=&quot;font-size: 25px;&quot;&gt;Settings&lt;/div&gt;" style="rounded=0;whiteSpace=wrap;html=1;fillColor=none;fontSize=25;" vertex="1" parent="3">
                    <mxGeometry x="400" y="200" width="280" height="40" as="geometry"/>
                </mxCell>
            </root>
        </mxGraphModel>
    </diagram>
</mxfile>